<svg width="219" height="35" viewBox="0 0 219 35" fill="none" xmlns="http://www.w3.org/2000/svg">
<path d="M27.616 8.144L22.784 26H16.736L13.92 14.416L11.008 26H4.992L0.128 8.144H5.6L8.128 20.912L11.136 8.144H16.928L19.968 20.848L22.464 8.144H27.616ZM37.8308 26.256C36.0814 26.256 34.5028 25.8827 33.0948 25.136C31.7081 24.3893 30.6094 23.3227 29.7988 21.936C29.0094 20.5493 28.6148 18.928 28.6148 17.072C28.6148 15.2373 29.0201 13.6267 29.8307 12.24C30.6414 10.832 31.7508 9.75467 33.1588 9.008C34.5668 8.26133 36.1454 7.888 37.8948 7.888C39.6441 7.888 41.2228 8.26133 42.6308 9.008C44.0388 9.75467 45.1481 10.832 45.9588 12.24C46.7694 13.6267 47.1748 15.2373 47.1748 17.072C47.1748 18.9067 46.7588 20.528 45.9268 21.936C45.1161 23.3227 43.9961 24.3893 42.5668 25.136C41.1588 25.8827 39.5801 26.256 37.8308 26.256ZM37.8308 21.52C38.8761 21.52 39.7614 21.136 40.4868 20.368C41.2334 19.6 41.6068 18.5013 41.6068 17.072C41.6068 15.6427 41.2441 14.544 40.5188 13.776C39.8148 13.008 38.9401 12.624 37.8948 12.624C36.8281 12.624 35.9428 13.008 35.2388 13.776C34.5348 14.5227 34.1828 15.6213 34.1828 17.072C34.1828 18.5013 34.5241 19.6 35.2068 20.368C35.9108 21.136 36.7854 21.52 37.8308 21.52ZM55.5498 11.12C56.1898 10.1387 56.9898 9.37067 57.9498 8.816C58.9098 8.24 59.9764 7.952 61.1498 7.952V13.744H59.6458C58.2804 13.744 57.2564 14.0427 56.5738 14.64C55.8911 15.216 55.5498 16.24 55.5498 17.712V26H50.0778V8.144H55.5498V11.12ZM69.2373 2.32V26H63.7653V2.32H69.2373ZM72.1148 17.04C72.1148 15.2053 72.4561 13.5947 73.1388 12.208C73.8428 10.8213 74.7921 9.75467 75.9868 9.008C77.1814 8.26133 78.5148 7.888 79.9868 7.888C81.1601 7.888 82.2268 8.13333 83.1868 8.624C84.1681 9.11467 84.9361 9.776 85.4908 10.608V2.32H90.9628V26H85.4908V23.44C84.9788 24.2933 84.2428 24.976 83.2828 25.488C82.3441 26 81.2454 26.256 79.9868 26.256C78.5148 26.256 77.1814 25.8827 75.9868 25.136C74.7921 24.368 73.8428 23.2907 73.1388 21.904C72.4561 20.496 72.1148 18.8747 72.1148 17.04ZM85.4908 17.072C85.4908 15.7067 85.1068 14.6293 84.3388 13.84C83.5921 13.0507 82.6748 12.656 81.5868 12.656C80.4988 12.656 79.5708 13.0507 78.8028 13.84C78.0561 14.608 77.6828 15.6747 77.6828 17.04C77.6828 18.4053 78.0561 19.4933 78.8028 20.304C79.5708 21.0933 80.4988 21.488 81.5868 21.488C82.6748 21.488 83.5921 21.0933 84.3388 20.304C85.1068 19.5147 85.4908 18.4373 85.4908 17.072ZM109.831 26.256C108.081 26.256 106.503 25.8827 105.095 25.136C103.708 24.3893 102.609 23.3227 101.799 21.936C101.009 20.5493 100.615 18.928 100.615 17.072C100.615 15.2373 101.02 13.6267 101.831 12.24C102.641 10.832 103.751 9.75467 105.159 9.008C106.567 8.26133 108.145 7.888 109.895 7.888C111.644 7.888 113.223 8.26133 114.631 9.008C116.039 9.75467 117.148 10.832 117.959 12.24C118.769 13.6267 119.175 15.2373 119.175 17.072C119.175 18.9067 118.759 20.528 117.927 21.936C117.116 23.3227 115.996 24.3893 114.567 25.136C113.159 25.8827 111.58 26.256 109.831 26.256ZM109.831 21.52C110.876 21.52 111.761 21.136 112.487 20.368C113.233 19.6 113.607 18.5013 113.607 17.072C113.607 15.6427 113.244 14.544 112.519 13.776C111.815 13.008 110.94 12.624 109.895 12.624C108.828 12.624 107.943 13.008 107.239 13.776C106.535 14.5227 106.183 15.6213 106.183 17.072C106.183 18.5013 106.524 19.6 107.207 20.368C107.911 21.136 108.785 21.52 109.831 21.52ZM131.038 12.688H128.094V26H122.622V12.688H120.638V8.144H122.622V7.632C122.622 5.43467 123.251 3.77067 124.51 2.64C125.768 1.488 127.614 0.911999 130.046 0.911999C130.451 0.911999 130.75 0.922665 130.942 0.943998V5.584C129.896 5.52 129.16 5.66933 128.734 6.032C128.307 6.39467 128.094 7.04533 128.094 7.984V8.144H131.038V12.688ZM139.302 17.04C139.302 15.2053 139.644 13.5947 140.326 12.208C141.03 10.8213 141.98 9.75467 143.174 9.008C144.369 8.26133 145.702 7.888 147.174 7.888C148.348 7.888 149.414 8.13333 150.374 8.624C151.356 9.11467 152.124 9.776 152.678 10.608V2.32H158.15V26H152.678V23.44C152.166 24.2933 151.43 24.976 150.47 25.488C149.532 26 148.433 26.256 147.174 26.256C145.702 26.256 144.369 25.8827 143.174 25.136C141.98 24.368 141.03 23.2907 140.326 21.904C139.644 20.496 139.302 18.8747 139.302 17.04ZM152.678 17.072C152.678 15.7067 152.294 14.6293 151.526 13.84C150.78 13.0507 149.862 12.656 148.774 12.656C147.686 12.656 146.758 13.0507 145.99 13.84C145.244 14.608 144.87 15.6747 144.87 17.04C144.87 18.4053 145.244 19.4933 145.99 20.304C146.758 21.0933 147.686 21.488 148.774 21.488C149.862 21.488 150.78 21.0933 151.526 20.304C152.294 19.5147 152.678 18.4373 152.678 17.072ZM170.237 26.256C168.488 26.256 166.909 25.8827 165.501 25.136C164.114 24.3893 163.016 23.3227 162.205 21.936C161.416 20.5493 161.021 18.928 161.021 17.072C161.021 15.2373 161.426 13.6267 162.237 12.24C163.048 10.832 164.157 9.75467 165.565 9.008C166.973 8.26133 168.552 7.888 170.301 7.888C172.05 7.888 173.629 8.26133 175.037 9.008C176.445 9.75467 177.554 10.832 178.365 12.24C179.176 13.6267 179.581 15.2373 179.581 17.072C179.581 18.9067 179.165 20.528 178.333 21.936C177.522 23.3227 176.402 24.3893 174.973 25.136C173.565 25.8827 171.986 26.256 170.237 26.256ZM170.237 21.52C171.282 21.52 172.168 21.136 172.893 20.368C173.64 19.6 174.013 18.5013 174.013 17.072C174.013 15.6427 173.65 14.544 172.925 13.776C172.221 13.008 171.346 12.624 170.301 12.624C169.234 12.624 168.349 13.008 167.645 13.776C166.941 14.5227 166.589 15.6213 166.589 17.072C166.589 18.5013 166.93 19.6 167.613 20.368C168.317 21.136 169.192 21.52 170.237 21.52ZM189.268 7.888C190.527 7.888 191.625 8.144 192.564 8.656C193.524 9.168 194.26 9.84 194.772 10.672V8.144H200.244V25.968C200.244 27.6107 199.913 29.0933 199.252 30.416C198.612 31.76 197.62 32.8267 196.276 33.616C194.953 34.4053 193.3 34.8 191.316 34.8C188.671 34.8 186.527 34.1707 184.884 32.912C183.241 31.6747 182.303 29.9893 182.068 27.856H187.476C187.647 28.5387 188.052 29.072 188.692 29.456C189.332 29.8613 190.121 30.064 191.06 30.064C192.191 30.064 193.087 29.7333 193.748 29.072C194.431 28.432 194.772 27.3973 194.772 25.968V23.44C194.239 24.272 193.503 24.9547 192.564 25.488C191.625 26 190.527 26.256 189.268 26.256C187.796 26.256 186.463 25.8827 185.268 25.136C184.073 24.368 183.124 23.2907 182.42 21.904C181.737 20.496 181.396 18.8747 181.396 17.04C181.396 15.2053 181.737 13.5947 182.42 12.208C183.124 10.8213 184.073 9.75467 185.268 9.008C186.463 8.26133 187.796 7.888 189.268 7.888ZM194.772 17.072C194.772 15.7067 194.388 14.6293 193.62 13.84C192.873 13.0507 191.956 12.656 190.868 12.656C189.78 12.656 188.852 13.0507 188.084 13.84C187.337 14.608 186.964 15.6747 186.964 17.04C186.964 18.4053 187.337 19.4933 188.084 20.304C188.852 21.0933 189.78 21.488 190.868 21.488C191.956 21.488 192.873 21.0933 193.62 20.304C194.388 19.5147 194.772 18.4373 194.772 17.072ZM211.467 26.256C209.909 26.256 208.523 25.9893 207.307 25.456C206.091 24.9227 205.131 24.1973 204.427 23.28C203.723 22.3413 203.328 21.296 203.243 20.144H208.651C208.715 20.7627 209.003 21.264 209.515 21.648C210.027 22.032 210.656 22.224 211.403 22.224C212.085 22.224 212.608 22.096 212.971 21.84C213.355 21.5627 213.547 21.2107 213.547 20.784C213.547 20.272 213.28 19.8987 212.747 19.664C212.213 19.408 211.349 19.1307 210.155 18.832C208.875 18.5333 207.808 18.224 206.955 17.904C206.101 17.5627 205.365 17.04 204.747 16.336C204.128 15.6107 203.819 14.64 203.819 13.424C203.819 12.4 204.096 11.472 204.651 10.64C205.227 9.78667 206.059 9.11467 207.147 8.624C208.256 8.13333 209.568 7.888 211.083 7.888C213.323 7.888 215.083 8.44267 216.363 9.552C217.664 10.6613 218.411 12.1333 218.603 13.968H213.547C213.461 13.3493 213.184 12.8587 212.715 12.496C212.267 12.1333 211.669 11.952 210.923 11.952C210.283 11.952 209.792 12.08 209.451 12.336C209.109 12.5707 208.939 12.9013 208.939 13.328C208.939 13.84 209.205 14.224 209.739 14.48C210.293 14.736 211.147 14.992 212.299 15.248C213.621 15.5893 214.699 15.9307 215.531 16.272C216.363 16.592 217.088 17.1253 217.707 17.872C218.347 18.5973 218.677 19.5787 218.699 20.816C218.699 21.8613 218.4 22.8 217.803 23.632C217.227 24.4427 216.384 25.0827 215.275 25.552C214.187 26.0213 212.917 26.256 211.467 26.256Z" fill="white"/>
</svg>
