<svg width="44" height="35" viewBox="0 0 44 35" fill="none" xmlns="http://www.w3.org/2000/svg">
<path d="M2.88 34.56C1.984 34.592 1.28 34.352 0.768 33.84C0.256 33.328 0 32.672 0 31.872C0 31.264 0.192 30.736 0.576 30.288C0.928 29.808 1.456 29.552 2.16 29.52L3.6 29.424C5.008 29.328 6.064 28.896 6.768 28.128C7.504 27.328 7.872 26.192 7.872 24.72V3.12C7.872 2.096 8.128 1.328 8.64 0.816001C9.184 0.272 9.952 0 10.944 0C11.936 0 12.688 0.272 13.2 0.816001C13.744 1.328 14.016 2.096 14.016 3.12V24.672C14.016 26.688 13.648 28.4 12.912 29.808C12.208 31.216 11.152 32.32 9.744 33.12C8.336 33.888 6.592 34.336 4.512 34.464L2.88 34.56Z" fill="#0059C1"/>
<path d="M24.5516 34.608C23.5596 34.608 22.7756 34.336 22.1996 33.792C21.6556 33.216 21.3836 32.4 21.3836 31.344V3.648C21.3836 2.592 21.6556 1.792 22.1996 1.248C22.7756 0.672001 23.5916 0.384001 24.6476 0.384001H41.3996C42.2316 0.384001 42.8556 0.592001 43.2716 1.008C43.6876 1.424 43.8956 2.016 43.8956 2.784C43.8956 3.584 43.6876 4.208 43.2716 4.656C42.8556 5.072 42.2316 5.28 41.3996 5.28H27.5276V14.832H40.3916C41.1916 14.832 41.7996 15.04 42.2156 15.456C42.6636 15.872 42.8876 16.464 42.8876 17.232C42.8876 18.032 42.6636 18.656 42.2156 19.104C41.7996 19.52 41.1916 19.728 40.3916 19.728H27.5276V31.344C27.5276 33.52 26.5356 34.608 24.5516 34.608Z" fill="#0059C1"/>
</svg>
